<svg xmlns="http://www.w3.org/2000/svg" xmlns:xlink="http://www.w3.org/1999/xlink" width="498" zoomAndPan="magnify" viewBox="0 0 373.5 279.749991" height="373" preserveAspectRatio="xMidYMid meet" version="1.0"><defs><g/><clipPath id="ca3c2d7244"><path d="M 80 0.0625 L 235 0.0625 L 235 93 L 80 93 Z M 80 0.0625 " clip-rule="nonzero"/></clipPath><clipPath id="53a5b78c59"><path d="M 34.367188 81 L 338.460938 81 L 338.460938 179 L 34.367188 179 Z M 34.367188 81 " clip-rule="nonzero"/></clipPath><clipPath id="d2afd4d6e1"><path d="M 34.367188 74 L 333 74 L 333 149 L 34.367188 149 Z M 34.367188 74 " clip-rule="nonzero"/></clipPath></defs><path fill="#ff3131" d="M 129.367188 29.1875 C 122.964844 35.628906 112.570312 35.253906 105.160156 32.363281 C 97.46875 29.925781 91.585938 30.5625 85.894531 33.816406 C 86.550781 30.242188 86.703125 26.644531 86.355469 23.027344 C 85.992188 18.835938 84.804688 15.230469 82.921875 13.003906 C 92.742188 11.996094 102.585938 16.839844 108.738281 22.578125 C 114.894531 28.320312 121.160156 32.019531 129.367188 29.1875 Z M 129.367188 29.1875 " fill-opacity="1" fill-rule="nonzero"/><g clip-path="url(#ca3c2d7244)"><path fill="#258f62" d="M 234.152344 62.707031 C 226.617188 61.171875 219.011719 60.195312 211.332031 59.773438 C 210.136719 59.703125 208.933594 59.644531 207.738281 59.605469 C 198.140625 59.273438 188.578125 59.683594 179.046875 60.839844 C 176.699219 61.121094 174.375 61.441406 172.074219 61.796875 C 171.109375 61.949219 170.152344 62.105469 169.199219 62.269531 C 168.902344 62.320312 168.601562 62.367188 168.308594 62.421875 C 166.699219 62.703125 165.105469 63.003906 163.515625 63.320312 C 155.945312 64.835938 148.484375 66.765625 141.125 69.101562 L 147.601562 56.207031 L 142.070312 56.207031 L 152.261719 37.605469 L 148.308594 37.605469 L 158.433594 18.109375 L 168.558594 37.605469 L 164.601562 37.605469 L 173.460938 53.757812 L 178.417969 43.875 L 172.058594 43.875 L 183.796875 22.503906 L 179.246094 22.503906 L 190.890625 0.0625 L 202.550781 22.503906 L 197.996094 22.503906 L 209.730469 43.894531 L 203.363281 43.894531 L 208.933594 55.027344 L 220.496094 11.289062 Z M 80.992188 13.132812 L 91.707031 92.0625 C 92.304688 91.691406 92.90625 91.324219 93.511719 90.957031 L 82.746094 12.953125 Z M 80.992188 13.132812 " fill-opacity="1" fill-rule="nonzero"/></g><path fill="#99cc33" d="M 302.347656 98.398438 C 295.214844 93.5625 287.710938 89.410156 279.824219 85.9375 C 271.941406 82.464844 263.8125 79.726562 255.433594 77.726562 C 249.46875 76.324219 243.433594 75.332031 237.332031 74.753906 C 230.804688 74.132812 224.261719 74 217.710938 74.347656 C 211.160156 74.695312 204.671875 75.523438 198.242188 76.832031 C 191.8125 78.140625 185.515625 79.914062 179.351562 82.152344 C 173.183594 84.390625 167.214844 87.070312 161.445312 90.191406 C 150.71875 96.007812 140.734375 103.320312 131.054688 110.40625 C 126.28125 113.890625 121.335938 117.511719 116.410156 120.871094 C 98.089844 133.351562 83.507812 139.4375 69.109375 140.613281 C 64.050781 141.039062 59.042969 140.730469 54.078125 139.683594 C 49.113281 138.636719 44.402344 136.894531 39.949219 134.464844 C 55.863281 117.933594 73.101562 103.625 91.707031 92.0625 C 92.304688 91.691406 92.90625 91.324219 93.511719 90.957031 C 108.503906 81.761719 124.375 74.480469 141.125 69.113281 C 148.484375 66.773438 155.945312 64.847656 163.515625 63.332031 C 165.105469 63.015625 166.699219 62.714844 168.308594 62.429688 C 168.601562 62.375 168.902344 62.332031 169.199219 62.28125 C 170.152344 62.113281 171.109375 61.960938 172.074219 61.808594 C 174.378906 61.445312 176.703125 61.125 179.046875 60.847656 C 188.578125 59.691406 198.140625 59.28125 207.738281 59.617188 C 208.933594 59.65625 210.136719 59.710938 211.332031 59.78125 C 219.011719 60.203125 226.617188 61.183594 234.152344 62.71875 C 245.550781 65 256.441406 68.753906 266.828125 73.972656 C 280.410156 80.875 292.097656 88.90625 302.347656 98.398438 Z M 302.347656 98.398438 " fill-opacity="1" fill-rule="nonzero"/><g clip-path="url(#53a5b78c59)"><path fill="#3cb280" d="M 338.242188 147.226562 C 333.386719 137.757812 294.109375 134.953125 285.394531 134.292969 C 274.527344 133.464844 263.683594 133.695312 252.863281 134.984375 C 242.042969 136.273438 231.449219 138.597656 221.082031 141.960938 C 188.351562 152.640625 158.425781 173.464844 124.441406 177.964844 C 90.722656 182.433594 58.160156 166.191406 34.515625 140.324219 C 39.0625 143.074219 43.898438 145.15625 49.023438 146.566406 C 54.144531 147.972656 59.367188 148.660156 64.679688 148.621094 C 66.332031 148.621094 68.023438 148.554688 69.707031 148.414062 C 89.816406 146.785156 107.375 136.347656 120.421875 127.464844 C 125.449219 124.03125 130.476562 120.375 135.277344 116.847656 C 144.75 109.914062 154.542969 102.769531 164.839844 97.164062 C 168.207031 95.34375 171.648438 93.683594 175.164062 92.175781 C 178.683594 90.667969 182.261719 89.324219 185.902344 88.144531 C 189.539062 86.960938 193.226562 85.949219 196.957031 85.105469 C 200.691406 84.257812 204.453125 83.585938 208.246094 83.082031 C 212.039062 82.578125 215.847656 82.25 219.671875 82.09375 C 223.496094 81.9375 227.316406 81.957031 231.140625 82.148438 C 234.960938 82.339844 238.765625 82.703125 242.554688 83.242188 C 246.34375 83.78125 250.101562 84.492188 253.824219 85.371094 C 284.109375 92.496094 311.996094 110.714844 332.382812 136.652344 L 332.441406 136.605469 C 334.4375 140.035156 336.363281 143.558594 338.242188 147.226562 Z M 338.242188 147.226562 " fill-opacity="1" fill-rule="nonzero"/></g><g clip-path="url(#d2afd4d6e1)"><path fill="#ffffff" d="M 69.675781 148.417969 C 89.785156 146.789062 107.347656 136.355469 120.390625 127.46875 C 125.417969 124.035156 130.449219 120.382812 135.25 116.851562 C 144.71875 109.921875 154.511719 102.777344 164.808594 97.171875 C 168.175781 95.351562 171.617188 93.6875 175.132812 92.179688 C 178.652344 90.671875 182.230469 89.328125 185.871094 88.148438 C 189.511719 86.96875 193.195312 85.953125 196.929688 85.109375 C 200.660156 84.261719 204.421875 83.589844 208.214844 83.085938 C 212.007812 82.585938 215.816406 82.253906 219.640625 82.097656 C 223.464844 81.941406 227.289062 81.960938 231.109375 82.152344 C 234.929688 82.34375 238.734375 82.710938 242.523438 83.25 C 246.3125 83.785156 250.070312 84.496094 253.792969 85.375 C 284.078125 92.5 311.964844 110.71875 332.351562 136.65625 L 332.410156 136.609375 C 323.753906 121.710938 313.960938 109.117188 302.316406 98.402344 C 295.1875 93.570312 287.679688 89.417969 279.796875 85.941406 C 271.914062 82.46875 263.78125 79.730469 255.402344 77.730469 C 249.4375 76.328125 243.402344 75.335938 237.304688 74.757812 L 238.480469 79.203125 L 202.550781 79.203125 L 203.429688 75.890625 C 188.628906 78.289062 174.640625 83.058594 161.457031 90.199219 C 150.726562 96.015625 140.742188 103.324219 131.066406 110.414062 C 126.289062 113.898438 121.347656 117.515625 116.421875 120.875 C 98.101562 133.359375 83.515625 139.441406 69.117188 140.617188 C 64.0625 141.042969 59.050781 140.734375 54.085938 139.6875 C 49.121094 138.640625 44.414062 136.902344 39.960938 134.46875 C 38.125 136.363281 36.289062 138.316406 34.484375 140.324219 C 34.484375 140.324219 34.484375 140.355469 34.515625 140.355469 C 39.0625 143.105469 43.898438 145.1875 49.023438 146.59375 C 54.144531 148.003906 59.367188 148.6875 64.679688 148.652344 C 66.308594 148.625 67.996094 148.558594 69.675781 148.417969 Z M 69.675781 148.417969 " fill-opacity="1" fill-rule="nonzero"/></g><path fill="#ffffff" d="M 203.429688 75.886719 L 202.550781 79.199219 L 238.519531 79.199219 L 237.34375 74.753906 C 225.992188 73.675781 214.6875 74.054688 203.429688 75.886719 Z M 203.429688 75.886719 " fill-opacity="1" fill-rule="nonzero"/><g fill="#014e0f" fill-opacity="1"><g transform="translate(88.492284, 260.586111)"><g><path d="M 14.90625 -13.796875 L 23.921875 -13.796875 L 23.921875 -0.984375 C 22.546875 -0.546875 21.140625 -0.210938 19.703125 0.015625 C 18.273438 0.242188 16.617188 0.359375 14.734375 0.359375 C 10.753906 0.359375 7.675781 -0.816406 5.5 -3.171875 C 3.320312 -5.535156 2.234375 -8.832031 2.234375 -13.0625 C 2.234375 -15.789062 2.773438 -18.171875 3.859375 -20.203125 C 4.941406 -22.242188 6.503906 -23.800781 8.546875 -24.875 C 10.585938 -25.957031 13 -26.5 15.78125 -26.5 C 18.5625 -26.5 21.15625 -25.988281 23.5625 -24.96875 L 22.3125 -22.109375 C 20.019531 -23.109375 17.773438 -23.609375 15.578125 -23.609375 C 12.472656 -23.609375 10.046875 -22.664062 8.296875 -20.78125 C 6.546875 -18.894531 5.671875 -16.320312 5.671875 -13.0625 C 5.671875 -9.601562 6.507812 -6.972656 8.1875 -5.171875 C 9.863281 -3.378906 12.304688 -2.484375 15.515625 -2.484375 C 17.265625 -2.484375 18.972656 -2.691406 20.640625 -3.109375 L 20.640625 -10.859375 L 14.90625 -10.859375 Z M 14.90625 -13.796875 "/></g></g></g><g fill="#014e0f" fill-opacity="1"><g transform="translate(115.134844, 260.586111)"><g><path d="M 26.359375 -13.09375 C 26.359375 -8.914062 25.300781 -5.628906 23.1875 -3.234375 C 21.070312 -0.835938 18.113281 0.359375 14.3125 0.359375 C 10.46875 0.359375 7.492188 -0.816406 5.390625 -3.171875 C 3.285156 -5.523438 2.234375 -8.847656 2.234375 -13.140625 C 2.234375 -17.390625 3.273438 -20.679688 5.359375 -23.015625 C 7.453125 -25.359375 10.445312 -26.53125 14.34375 -26.53125 C 18.132812 -26.53125 21.082031 -25.34375 23.1875 -22.96875 C 25.300781 -20.59375 26.359375 -17.300781 26.359375 -13.09375 Z M 5.703125 -13.09375 C 5.703125 -9.644531 6.429688 -7.015625 7.890625 -5.203125 C 9.359375 -3.390625 11.5 -2.484375 14.3125 -2.484375 C 17.113281 -2.484375 19.238281 -3.375 20.6875 -5.15625 C 22.144531 -6.945312 22.875 -9.59375 22.875 -13.09375 C 22.875 -16.582031 22.148438 -19.210938 20.703125 -20.984375 C 19.265625 -22.753906 17.144531 -23.640625 14.34375 -23.640625 C 11.507812 -23.640625 9.359375 -22.742188 7.890625 -20.953125 C 6.429688 -19.160156 5.703125 -16.539062 5.703125 -13.09375 Z M 5.703125 -13.09375 "/></g></g></g><g fill="#014e0f" fill-opacity="1"><g transform="translate(143.707246, 260.586111)"><g><path d="M 3.5625 0 L 3.5625 -26.125 L 6.84375 -26.125 L 6.84375 -2.9375 L 18.265625 -2.9375 L 18.265625 0 Z M 3.5625 0 "/></g></g></g><g fill="#014e0f" fill-opacity="1"><g transform="translate(162.880598, 260.586111)"><g><path d="M 6.84375 0 L 3.5625 0 L 3.5625 -26.125 L 18.15625 -26.125 L 18.15625 -23.234375 L 6.84375 -23.234375 L 6.84375 -13.96875 L 17.453125 -13.96875 L 17.453125 -11.09375 L 6.84375 -11.09375 Z M 6.84375 0 "/></g></g></g><g fill="#014e0f" fill-opacity="1"><g transform="translate(181.875262, 260.586111)"><g/></g></g><g fill="#014e0f" fill-opacity="1"><g transform="translate(191.381525, 260.586111)"><g><path d="M 14.734375 -23.609375 C 11.929688 -23.609375 9.722656 -22.664062 8.109375 -20.78125 C 6.503906 -18.894531 5.703125 -16.320312 5.703125 -13.0625 C 5.703125 -9.6875 6.476562 -7.082031 8.03125 -5.25 C 9.59375 -3.425781 11.816406 -2.515625 14.703125 -2.515625 C 16.566406 -2.515625 18.660156 -2.863281 20.984375 -3.5625 L 20.984375 -0.703125 C 19.867188 -0.296875 18.796875 -0.0195312 17.765625 0.125 C 16.742188 0.28125 15.566406 0.359375 14.234375 0.359375 C 10.390625 0.359375 7.425781 -0.8125 5.34375 -3.15625 C 3.269531 -5.5 2.234375 -8.8125 2.234375 -13.09375 C 2.234375 -15.789062 2.726562 -18.148438 3.71875 -20.171875 C 4.71875 -22.191406 6.164062 -23.75 8.0625 -24.84375 C 9.96875 -25.945312 12.207031 -26.5 14.78125 -26.5 C 17.539062 -26.5 19.945312 -25.988281 22 -24.96875 L 20.671875 -22.171875 C 18.585938 -23.128906 16.609375 -23.609375 14.734375 -23.609375 Z M 14.734375 -23.609375 "/></g></g></g><g fill="#014e0f" fill-opacity="1"><g transform="translate(214.503902, 260.586111)"><g><path d="M 3.5625 0 L 3.5625 -26.125 L 6.84375 -26.125 L 6.84375 -2.9375 L 18.265625 -2.9375 L 18.265625 0 Z M 3.5625 0 "/></g></g></g><g fill="#014e0f" fill-opacity="1"><g transform="translate(233.677255, 260.586111)"><g><path d="M 23.421875 -26.125 L 23.421875 -9.21875 C 23.421875 -6.238281 22.519531 -3.894531 20.71875 -2.1875 C 18.925781 -0.488281 16.429688 0.359375 13.234375 0.359375 C 10.078125 0.359375 7.628906 -0.5 5.890625 -2.21875 C 4.148438 -3.945312 3.28125 -6.304688 3.28125 -9.296875 L 3.28125 -26.125 L 6.59375 -26.125 L 6.59375 -9.1875 C 6.59375 -7.050781 7.160156 -5.398438 8.296875 -4.234375 C 9.429688 -3.066406 11.144531 -2.484375 13.4375 -2.484375 C 15.59375 -2.484375 17.25 -3.0625 18.40625 -4.21875 C 19.570312 -5.375 20.15625 -7.039062 20.15625 -9.21875 L 20.15625 -26.125 Z M 23.421875 -26.125 "/></g></g></g><g fill="#014e0f" fill-opacity="1"><g transform="translate(260.427027, 260.586111)"><g><path d="M 3.5625 -26.125 L 11 -26.125 C 14.507812 -26.125 17.039062 -25.601562 18.59375 -24.5625 C 20.144531 -23.519531 20.921875 -21.882812 20.921875 -19.65625 C 20.921875 -18.101562 20.5 -16.820312 19.65625 -15.8125 C 18.8125 -14.8125 17.578125 -14.160156 15.953125 -13.859375 L 15.953125 -13.6875 C 17.960938 -13.34375 19.441406 -12.644531 20.390625 -11.59375 C 21.335938 -10.550781 21.8125 -9.164062 21.8125 -7.4375 C 21.8125 -5.101562 21.015625 -3.28125 19.421875 -1.96875 C 17.828125 -0.65625 15.597656 0 12.734375 0 L 3.5625 0 Z M 6.84375 -15.015625 L 11.671875 -15.015625 C 13.710938 -15.015625 15.195312 -15.335938 16.125 -15.984375 C 17.0625 -16.640625 17.53125 -17.738281 17.53125 -19.28125 C 17.53125 -20.707031 17.019531 -21.734375 16 -22.359375 C 14.976562 -22.992188 13.367188 -23.3125 11.171875 -23.3125 L 6.84375 -23.3125 Z M 6.84375 -12.25 L 6.84375 -2.78125 L 12.109375 -2.78125 C 14.210938 -2.78125 15.769531 -3.1875 16.78125 -4 C 17.789062 -4.8125 18.296875 -6.039062 18.296875 -7.6875 C 18.296875 -9.25 17.757812 -10.398438 16.6875 -11.140625 C 15.613281 -11.878906 14.003906 -12.25 11.859375 -12.25 Z M 6.84375 -12.25 "/></g></g></g><g fill="#014e0f" fill-opacity="1"><g transform="translate(71.616439, 217.746653)"><g><path d="M 11.828125 0 L 8.515625 0 L 8.515625 -23.234375 L 0.359375 -23.234375 L 0.359375 -26.125 L 19.9375 -26.125 L 19.9375 -23.234375 L 11.828125 -23.234375 Z M 11.828125 0 "/></g></g></g><g fill="#014e0f" fill-opacity="1"><g transform="translate(91.96914, 217.746653)"><g><path d="M 6.84375 -13.578125 L 10.75 -13.578125 C 12.875 -13.578125 14.425781 -13.992188 15.40625 -14.828125 C 16.382812 -15.660156 16.875 -16.898438 16.875 -18.546875 C 16.875 -20.191406 16.378906 -21.390625 15.390625 -22.140625 C 14.398438 -22.898438 12.796875 -23.28125 10.578125 -23.28125 L 6.84375 -23.28125 Z M 6.84375 -10.796875 L 6.84375 0 L 3.5625 0 L 3.5625 -26.125 L 10.75 -26.125 C 13.988281 -26.125 16.382812 -25.503906 17.9375 -24.265625 C 19.5 -23.035156 20.28125 -21.179688 20.28125 -18.703125 C 20.28125 -15.242188 18.535156 -12.910156 15.046875 -11.703125 L 22.203125 0 L 18.375 0 L 12.046875 -10.796875 Z M 6.84375 -10.796875 "/></g></g></g><g fill="#014e0f" fill-opacity="1"><g transform="translate(114.734139, 217.746653)"><g><path d="M 10.90625 0 L 1.46875 0 L 1.46875 -1.890625 L 4.53125 -2.59375 L 4.53125 -23.5 L 1.46875 -24.234375 L 1.46875 -26.125 L 10.90625 -26.125 L 10.90625 -24.234375 L 7.828125 -23.5 L 7.828125 -2.59375 L 10.90625 -1.890625 Z M 10.90625 0 "/></g></g></g><g fill="#014e0f" fill-opacity="1"><g transform="translate(127.135167, 217.746653)"><g><path d="M 20.28125 -18.4375 C 20.28125 -15.769531 19.367188 -13.722656 17.546875 -12.296875 C 15.722656 -10.878906 13.15625 -10.171875 9.84375 -10.171875 L 6.84375 -10.171875 L 6.84375 0 L 3.5625 0 L 3.5625 -26.125 L 10.46875 -26.125 C 17.007812 -26.125 20.28125 -23.5625 20.28125 -18.4375 Z M 6.84375 -12.984375 L 9.46875 -12.984375 C 12.0625 -12.984375 13.941406 -13.40625 15.109375 -14.25 C 16.285156 -15.09375 16.875 -16.441406 16.875 -18.296875 C 16.875 -19.972656 16.328125 -21.226562 15.234375 -22.0625 C 14.148438 -22.894531 12.460938 -23.3125 10.171875 -23.3125 L 6.84375 -23.3125 Z M 6.84375 -12.984375 "/></g></g></g><g fill="#014e0f" fill-opacity="1"><g transform="translate(149.274759, 217.746653)"><g><path d="M 3.5625 0 L 3.5625 -26.125 L 6.84375 -26.125 L 6.84375 -2.9375 L 18.265625 -2.9375 L 18.265625 0 Z M 3.5625 0 "/></g></g></g><g fill="#014e0f" fill-opacity="1"><g transform="translate(168.448112, 217.746653)"><g><path d="M 18.15625 0 L 3.5625 0 L 3.5625 -26.125 L 18.15625 -26.125 L 18.15625 -23.234375 L 6.84375 -23.234375 L 6.84375 -15.078125 L 17.5 -15.078125 L 17.5 -12.21875 L 6.84375 -12.21875 L 6.84375 -2.890625 L 18.15625 -2.890625 Z M 18.15625 0 "/></g></g></g><g fill="#014e0f" fill-opacity="1"><g transform="translate(188.800813, 217.746653)"><g/></g></g><g fill="#014e0f" fill-opacity="1"><g transform="translate(198.307076, 217.746653)"><g><path d="M 20.28125 -18.4375 C 20.28125 -15.769531 19.367188 -13.722656 17.546875 -12.296875 C 15.722656 -10.878906 13.15625 -10.171875 9.84375 -10.171875 L 6.84375 -10.171875 L 6.84375 0 L 3.5625 0 L 3.5625 -26.125 L 10.46875 -26.125 C 17.007812 -26.125 20.28125 -23.5625 20.28125 -18.4375 Z M 6.84375 -12.984375 L 9.46875 -12.984375 C 12.0625 -12.984375 13.941406 -13.40625 15.109375 -14.25 C 16.285156 -15.09375 16.875 -16.441406 16.875 -18.296875 C 16.875 -19.972656 16.328125 -21.226562 15.234375 -22.0625 C 14.148438 -22.894531 12.460938 -23.3125 10.171875 -23.3125 L 6.84375 -23.3125 Z M 6.84375 -12.984375 "/></g></g></g><g fill="#014e0f" fill-opacity="1"><g transform="translate(220.446668, 217.746653)"><g><path d="M 10.90625 0 L 1.46875 0 L 1.46875 -1.890625 L 4.53125 -2.59375 L 4.53125 -23.5 L 1.46875 -24.234375 L 1.46875 -26.125 L 10.90625 -26.125 L 10.90625 -24.234375 L 7.828125 -23.5 L 7.828125 -2.59375 L 10.90625 -1.890625 Z M 10.90625 0 "/></g></g></g><g fill="#014e0f" fill-opacity="1"><g transform="translate(232.847696, 217.746653)"><g><path d="M 24.265625 0 L 20.421875 0 L 6.4375 -21.6875 L 6.296875 -21.6875 L 6.375 -20.25 C 6.519531 -18.082031 6.59375 -16.195312 6.59375 -14.59375 L 6.59375 0 L 3.5625 0 L 3.5625 -26.125 L 7.359375 -26.125 L 8.171875 -24.859375 L 16.75 -11.59375 L 21.296875 -4.5 L 21.4375 -4.5 C 21.414062 -4.789062 21.367188 -5.8125 21.296875 -7.5625 C 21.222656 -9.320312 21.1875 -10.59375 21.1875 -11.375 L 21.1875 -26.125 L 24.265625 -26.125 Z M 24.265625 0 "/></g></g></g><g fill="#014e0f" fill-opacity="1"><g transform="translate(260.65173, 217.746653)"><g><path d="M 18.15625 0 L 3.5625 0 L 3.5625 -26.125 L 18.15625 -26.125 L 18.15625 -23.234375 L 6.84375 -23.234375 L 6.84375 -15.078125 L 17.5 -15.078125 L 17.5 -12.21875 L 6.84375 -12.21875 L 6.84375 -2.890625 L 18.15625 -2.890625 Z M 18.15625 0 "/></g></g></g><g fill="#014e0f" fill-opacity="1"><g transform="translate(281.004431, 217.746653)"><g><path d="M 18.375 -6.984375 C 18.375 -4.710938 17.550781 -2.921875 15.90625 -1.609375 C 14.257812 -0.296875 11.972656 0.359375 9.046875 0.359375 C 5.941406 0.359375 3.546875 -0.0507812 1.859375 -0.875 L 1.859375 -4.015625 C 2.960938 -3.546875 4.171875 -3.171875 5.484375 -2.890625 C 6.804688 -2.617188 8.039062 -2.484375 9.1875 -2.484375 C 11.132812 -2.484375 12.601562 -2.859375 13.59375 -3.609375 C 14.582031 -4.359375 15.078125 -5.390625 15.078125 -6.703125 C 15.078125 -7.566406 14.898438 -8.28125 14.546875 -8.84375 C 14.191406 -9.40625 13.59375 -9.929688 12.75 -10.421875 C 11.90625 -10.910156 10.632812 -11.460938 8.9375 -12.078125 C 6.519531 -12.960938 4.789062 -14.003906 3.75 -15.203125 C 2.71875 -16.398438 2.203125 -17.941406 2.203125 -19.828125 C 2.203125 -21.867188 2.96875 -23.488281 4.5 -24.6875 C 6.03125 -25.894531 8.046875 -26.5 10.546875 -26.5 C 13.148438 -26.5 15.550781 -26.007812 17.75 -25.03125 L 16.71875 -22.203125 C 14.476562 -23.140625 12.394531 -23.609375 10.46875 -23.609375 C 8.914062 -23.609375 7.703125 -23.273438 6.828125 -22.609375 C 5.953125 -21.941406 5.515625 -21.003906 5.515625 -19.796875 C 5.515625 -18.941406 5.6875 -18.226562 6.03125 -17.65625 C 6.375 -17.09375 6.921875 -16.578125 7.671875 -16.109375 C 8.429688 -15.648438 9.617188 -15.125 11.234375 -14.53125 C 13.179688 -13.8125 14.628906 -13.113281 15.578125 -12.4375 C 16.535156 -11.769531 17.238281 -11 17.6875 -10.125 C 18.144531 -9.25 18.375 -8.203125 18.375 -6.984375 Z M 18.375 -6.984375 "/></g></g></g></svg>